<?xml version="1.0" encoding="UTF-8"?>
<svg id="Layer_1" data-name="Layer 1" xmlns="http://www.w3.org/2000/svg" version="1.1" viewBox="0 0 1000 1000">
  <defs>
    <style>
      .cls-1 {
        fill: #1fa7df;
        stroke-width: 0px;
      }
    </style>
  </defs>
  <g>
    <rect class="cls-1" x="700.58" y="381" width="118.31" height="460.45"/>
    <rect class="cls-1" x="700.58" y="164.09" width="118.31" height="118.64" rx="27.54" ry="27.54"/>
    <path class="cls-1" d="M281.68,716.78h180.45v124.67h152.36v-239.08h-192.76l192.76-203.51v-234.77l-409.4,422.04s-125.63,130.65,76.6,130.65Z"/>
  </g>
  <path class="cls-1" d="M779.99,965.94H220.01c-102.54,0-185.93-83.43-185.93-185.93V219.99c0-102.54,83.43-185.93,185.93-185.93h559.98c102.54,0,185.93,83.43,185.93,185.93v559.98c0,102.54-83.43,185.93-185.93,185.93h0v.03ZM226.59,59.72c-92,0-166.85,74.85-166.85,166.85v546.83c0,92,74.85,166.85,166.85,166.85h546.83c92,0,166.85-74.85,166.85-166.85V226.57c0-92-74.85-166.85-166.85-166.85H226.59h0Z"/>
</svg>