<?xml version="1.0" encoding="UTF-8"?>
<svg id="Layer_1" data-name="Layer 1" xmlns="http://www.w3.org/2000/svg" version="1.1" viewBox="0 0 1000 432.74">
  <defs>
    <style>
      .cls-1 {
        fill: #231f20;
        stroke-width: 0px;
      }
    </style>
  </defs>
  <path class="cls-1" d="M217.06,87.25c4.34-8.06,10.27-14.32,17.75-18.8,7.5-4.47,15.78-6.71,24.84-6.71,8.18,0,15.33,1.6,21.44,4.81,6.11,3.21,10.99,7.21,14.64,11.99v-15.11h21.72v104.08h-21.72v-15.49c-3.66,4.91-8.63,9-14.93,12.27s-13.47,4.91-21.54,4.91c-8.95,0-17.13-2.3-24.56-6.9-7.43-4.59-13.32-11.02-17.66-19.27-4.34-8.25-6.51-17.6-6.51-28.05s2.17-19.7,6.51-27.76l.02.03h0ZM291.29,96.7c-2.96-5.29-6.83-9.32-11.62-12.09-4.79-2.77-9.95-4.16-15.49-4.16s-10.7,1.35-15.49,4.06c-4.79,2.7-8.66,6.68-11.62,11.9-2.96,5.23-4.44,11.42-4.44,18.6s1.49,13.47,4.44,18.88c2.96,5.41,6.86,9.53,11.7,12.37s9.98,4.26,15.39,4.26,10.7-1.39,15.49-4.16c4.79-2.77,8.66-6.83,11.62-12.19s4.44-11.62,4.44-18.8-1.49-13.41-4.44-18.7l.02.02h0Z"/>
  <path class="cls-1" d="M382.24,66.67c6.29-3.27,13.41-4.91,21.34-4.91,9.07,0,17.35,2.24,24.84,6.71s13.37,10.73,17.66,18.8c4.27,8.06,6.43,17.31,6.43,27.76s-2.14,19.8-6.43,28.05c-4.27,8.25-10.17,14.67-17.66,19.27s-15.78,6.9-24.84,6.9c-7.93,0-14.99-1.6-21.15-4.81-6.16-3.21-11.2-7.21-15.11-11.99v227.49h-21.54V63.46h21.54v15.29c3.66-4.79,8.63-8.81,14.93-12.09h-.01ZM426.15,96.42c-2.96-5.23-6.86-9.2-11.7-11.9-4.84-2.7-10.05-4.06-15.58-4.06s-10.55,1.39-15.39,4.16c-4.84,2.77-8.75,6.79-11.7,12.09-2.96,5.29-4.44,11.52-4.44,18.7s1.49,13.44,4.44,18.8c2.96,5.36,6.86,9.42,11.7,12.19s9.98,4.16,15.39,4.16,10.73-1.42,15.58-4.26c4.84-2.84,8.75-6.96,11.7-12.37s4.44-11.7,4.44-18.88-1.49-13.37-4.44-18.6v-.02h0Z"/>
  <path class="cls-1" d="M510.29,66.67c6.29-3.27,13.41-4.91,21.34-4.91,9.07,0,17.35,2.24,24.84,6.71,7.5,4.47,13.37,10.73,17.66,18.8,4.27,8.06,6.43,17.31,6.43,27.76s-2.14,19.8-6.43,28.05c-4.27,8.25-10.17,14.67-17.66,19.27s-15.78,6.9-24.84,6.9c-7.93,0-14.99-1.6-21.15-4.81-6.18-3.21-11.2-7.21-15.11-11.99v64.59h-21.54V63.48h21.54v15.29c3.66-4.79,8.63-8.81,14.93-12.09v-.02h-.01ZM554.22,96.42c-2.96-5.23-6.86-9.2-11.7-11.9-4.84-2.7-10.05-4.06-15.58-4.06s-10.55,1.39-15.39,4.16c-4.84,2.77-8.75,6.79-11.7,12.09s-4.44,11.52-4.44,18.7,1.49,13.44,4.44,18.8c2.96,5.36,6.86,9.42,11.7,12.19s9.98,4.16,15.39,4.16,10.73-1.42,15.58-4.26,8.75-6.96,11.7-12.37,4.44-11.7,4.44-18.88-1.49-13.37-4.44-18.6v-.02h0Z"/>
  <path class="cls-1" d="M617.67,164.8c-6.48-2.96-11.62-7-15.39-12.09s-5.79-10.8-6.04-17.1h22.29c.38,4.41,2.49,8.1,6.33,11.05s8.66,4.44,14.44,4.44,10.73-1.17,14.07-3.49c3.34-2.34,5.01-5.33,5.01-8.97,0-3.91-1.85-6.79-5.58-8.68s-9.6-3.97-17.66-6.23c-7.81-2.14-14.17-4.22-19.08-6.23-4.91-2.02-9.17-5.09-12.75-9.25-3.59-4.16-5.38-9.63-5.38-16.43,0-5.54,1.64-10.6,4.91-15.21,3.27-4.59,7.96-8.21,14.07-10.87,6.11-2.64,13.12-3.97,21.05-3.97,11.84,0,21.37,2.99,28.62,8.97s11.12,14.14,11.62,24.46h-21.54c-.38-4.66-2.27-8.38-5.66-11.14-3.41-2.77-8-4.16-13.79-4.16s-10.02,1.07-13.04,3.21c-3.02,2.14-4.54,4.98-4.54,8.5,0,2.77,1,5.09,3.02,7,2.02,1.89,4.47,3.37,7.36,4.44s7.18,2.42,12.84,4.06c7.56,2.02,13.76,4.06,18.6,6.14,4.84,2.07,9.03,5.13,12.55,9.17,3.52,4.02,5.36,9.38,5.48,16.06,0,5.91-1.64,11.2-4.91,15.86s-7.9,8.31-13.89,10.95c-5.98,2.64-13.01,3.97-21.05,3.97s-15.53-1.49-22-4.44l.05-.03h0Z"/>
  <path class="cls-1" d="M139,375.66c-6.48-2.95-11.62-7-15.39-12.09s-5.79-10.8-6.04-17.1h22.29c.38,4.41,2.49,8.1,6.33,11.05,3.84,2.95,8.66,4.44,14.44,4.44s10.73-1.17,14.07-3.49c3.34-2.34,5.01-5.33,5.01-8.97,0-3.91-1.85-6.79-5.58-8.68-3.72-1.89-9.6-3.97-17.66-6.23-7.81-2.14-14.17-4.22-19.08-6.23-4.91-2.02-9.17-5.09-12.75-9.25-3.59-4.16-5.38-9.63-5.38-16.43,0-5.54,1.64-10.6,4.91-15.21,3.27-4.59,7.96-8.21,14.07-10.87,6.11-2.64,13.12-3.97,21.05-3.97,11.84,0,21.37,2.99,28.62,8.97s11.12,14.14,11.62,24.46h-21.54c-.38-4.66-2.27-8.38-5.66-11.14-3.41-2.77-8-4.16-13.79-4.16s-10.02,1.07-13.04,3.21c-3.02,2.14-4.54,4.98-4.54,8.5,0,2.77,1,5.09,3.02,7,2.02,1.89,4.47,3.37,7.36,4.44s7.18,2.42,12.84,4.06c7.56,2.02,13.76,4.06,18.6,6.14,4.84,2.07,9.03,5.13,12.55,9.17,3.52,4.02,5.36,9.38,5.48,16.06,0,5.91-1.64,11.2-4.91,15.86-3.27,4.66-7.9,8.31-13.89,10.95-5.98,2.64-13.01,3.97-21.05,3.97s-15.53-1.49-22-4.44l.05-.03h-.01Z"/>
  <path class="cls-1" d="M242.59,373.38c-7.93-4.47-14.17-10.77-18.7-18.88-4.54-8.11-6.79-17.53-6.79-28.23s2.34-19.95,7-28.15c4.66-8.18,11.02-14.47,19.08-18.88s17.06-6.61,27.01-6.61,18.95,2.2,27.01,6.61,14.42,10.7,19.08,18.88c4.66,8.18,7,17.56,7,28.15s-2.39,19.95-7.18,28.15c-4.79,8.18-11.3,14.51-19.55,18.98s-17.35,6.71-27.3,6.71-18.7-2.24-26.63-6.71l-.03-.02h0ZM284.81,357.42c4.84-2.64,8.78-6.61,11.8-11.9,3.02-5.29,4.54-11.7,4.54-19.27s-1.45-13.94-4.34-19.17-6.74-9.17-11.52-11.8c-4.79-2.64-9.95-3.97-15.49-3.97s-10.67,1.32-15.39,3.97c-4.72,2.64-8.46,6.58-11.24,11.8-2.77,5.23-4.16,11.62-4.16,19.17,0,11.2,2.87,19.87,8.6,25.98,5.73,6.11,12.94,9.17,21.62,9.17,5.54,0,10.73-1.32,15.58-3.97h0Z"/>
  <path class="cls-1" d="M488.7,274.32v104.08h-21.54v-12.27c-3.41,4.27-7.85,7.65-13.32,10.1-5.48,2.45-11.3,3.69-17.48,3.69-8.18,0-15.53-1.7-22-5.09-6.48-3.41-11.59-8.43-15.29-15.11-3.71-6.68-5.58-14.72-5.58-24.17v-61.2h21.34v57.98c0,9.32,2.34,16.46,7,21.44s11.02,7.46,19.08,7.46,14.44-2.49,19.17-7.46c4.72-4.98,7.08-12.12,7.08-21.44v-57.98h21.54l.02-.02h-.02Z"/>
  <path class="cls-1" d="M542.14,291.88v57.61c0,3.91.92,6.71,2.74,8.4,1.82,1.7,4.94,2.55,9.35,2.55h13.22v17.95h-17c-9.7,0-17.13-2.27-22.29-6.79-5.16-4.52-7.75-11.9-7.75-22.1v-57.61h-12.27v-17.56h12.27v-25.88h21.72v25.88h25.31v17.56h-25.31.01Z"/>
  <path class="cls-1" d="M588.42,256.57c-2.64-2.64-3.97-5.91-3.97-9.82s1.32-7.18,3.97-9.82c2.64-2.64,5.91-3.97,9.82-3.97s7,1.32,9.63,3.97c2.64,2.64,3.97,5.91,3.97,9.82s-1.32,7.18-3.97,9.82c-2.64,2.64-5.86,3.97-9.63,3.97s-7.18-1.32-9.82-3.97h0ZM608.82,274.32v104.08h-21.54v-104.08h21.54Z"/>
  <path class="cls-1" d="M655.67,373.38c-7.93-4.47-14.17-10.77-18.7-18.88-4.54-8.11-6.79-17.53-6.79-28.23s2.34-19.95,7-28.15c4.66-8.18,11.02-14.47,19.08-18.88,8.06-4.41,17.06-6.61,27.01-6.61s18.95,2.2,27.01,6.61,14.42,10.7,19.08,18.88c4.66,8.18,7,17.56,7,28.15s-2.39,19.95-7.18,28.15c-4.79,8.18-11.3,14.51-19.55,18.98s-17.35,6.71-27.3,6.71-18.7-2.24-26.63-6.71l-.03-.02h0ZM697.88,357.42c4.84-2.64,8.78-6.61,11.8-11.9s4.54-11.7,4.54-19.27-1.45-13.94-4.34-19.17-6.74-9.17-11.52-11.8c-4.79-2.64-9.95-3.97-15.49-3.97s-10.67,1.32-15.39,3.97c-4.72,2.64-8.46,6.58-11.24,11.8s-4.16,11.62-4.16,19.17c0,11.2,2.87,19.87,8.6,25.98,5.73,6.11,12.94,9.17,21.62,9.17,5.54,0,10.73-1.32,15.58-3.97h0Z"/>
  <path class="cls-1" d="M832.17,277.72c6.48,3.41,11.55,8.43,15.21,15.11,3.66,6.68,5.48,14.72,5.48,24.17v61.39h-21.34v-58.18c0-9.32-2.34-16.46-7-21.44s-11.02-7.46-19.08-7.46-14.44,2.49-19.17,7.46c-4.72,4.98-7.08,12.12-7.08,21.44v58.18h-21.54v-104.08h21.54v11.9c3.52-4.27,8.03-7.61,13.51-10.02,5.48-2.39,11.3-3.59,17.48-3.59,8.18,0,15.53,1.7,22,5.09l-.02.02h.01Z"/>
  <path class="cls-1" d="M896.01,375.66c-6.48-2.95-11.62-7-15.39-12.09s-5.79-10.8-6.04-17.1h22.29c.38,4.41,2.49,8.1,6.33,11.05,3.84,2.95,8.66,4.44,14.44,4.44s10.73-1.17,14.07-3.49,5.01-5.33,5.01-8.97c0-3.91-1.85-6.79-5.58-8.68-3.71-1.89-9.6-3.97-17.66-6.23-7.81-2.14-14.17-4.22-19.08-6.23-4.91-2.02-9.17-5.09-12.75-9.25-3.59-4.16-5.38-9.63-5.38-16.43,0-5.54,1.64-10.6,4.91-15.21,3.27-4.59,7.96-8.21,14.07-10.87,6.11-2.64,13.12-3.97,21.05-3.97,11.84,0,21.37,2.99,28.62,8.97s11.12,14.14,11.62,24.46h-21.54c-.38-4.66-2.27-8.38-5.66-11.14-3.41-2.77-8-4.16-13.79-4.16s-10.02,1.07-13.04,3.21-4.54,4.98-4.54,8.5c0,2.77,1,5.09,3.02,7,2.02,1.89,4.47,3.37,7.36,4.44s7.18,2.42,12.84,4.06c7.56,2.02,13.76,4.06,18.6,6.14,4.84,2.07,9.03,5.13,12.55,9.17,3.52,4.02,5.36,9.38,5.48,16.06,0,5.91-1.64,11.2-4.91,15.86-3.27,4.66-7.9,8.31-13.89,10.95-5.98,2.64-13.01,3.97-21.05,3.97s-15.53-1.49-22-4.44l.05-.03h0Z"/>
  <g>
    <path class="cls-1" d="M116.34,59.92h-23.86l-50.29,72.12v15.74h52.92v22.22h21.2v-22.22h13.59v-19.3h-13.59V59.92h.03ZM68.29,128.5l27.56-41.24v41.24h-27.56Z"/>
    <path class="cls-1" d="M151.93,78.8c3.57,0,6.66-1.27,9.17-3.77s3.77-5.64,3.77-9.32-1.27-6.79-3.77-9.32c-5.09-5.08-13.54-4.94-18.48,0-2.5,2.5-3.77,5.64-3.77,9.32s1.27,6.81,3.77,9.32,5.64,3.77,9.32,3.77h-.01Z"/>
    <rect class="cls-1" x="141.03" y="90.46" width="21.5" height="79.57"/>
  </g>
</svg>